<svg id="visual" viewBox="0 0 1500 500" width="1500" height="500" xmlns="http://www.w3.org/2000/svg" xmlns:xlink="http://www.w3.org/1999/xlink" version="1.1"><rect x="0" y="0" width="1500" height="500" fill="#ffffff"></rect><path d="M0 259L16.7 276.7C33.3 294.3 66.7 329.7 100 346.8C133.3 364 166.7 363 200 364.8C233.3 366.7 266.7 371.3 300 365.7C333.3 360 366.7 344 400 324.8C433.3 305.7 466.7 283.3 500 281.2C533.3 279 566.7 297 600 333C633.3 369 666.7 423 700 444.5C733.3 466 766.7 455 800 443.2C833.3 431.3 866.7 418.7 900 397.2C933.3 375.7 966.7 345.3 1000 340.7C1033.3 336 1066.7 357 1100 366C1133.3 375 1166.7 372 1200 368.3C1233.3 364.7 1266.7 360.3 1300 341.2C1333.3 322 1366.7 288 1400 283.8C1433.3 279.7 1466.7 305.3 1483.3 318.2L1500 331L1500 501L1483.3 501C1466.7 501 1433.3 501 1400 501C1366.7 501 1333.3 501 1300 501C1266.7 501 1233.3 501 1200 501C1166.7 501 1133.3 501 1100 501C1066.7 501 1033.3 501 1000 501C966.7 501 933.3 501 900 501C866.7 501 833.3 501 800 501C766.7 501 733.3 501 700 501C666.7 501 633.3 501 600 501C566.7 501 533.3 501 500 501C466.7 501 433.3 501 400 501C366.7 501 333.3 501 300 501C266.7 501 233.3 501 200 501C166.7 501 133.3 501 100 501C66.7 501 33.3 501 16.7 501L0 501Z" fill="#0066FF" stroke-linecap="round" stroke-linejoin="miter"></path></svg>